<svg width="40" height="40" viewBox="0 0 40 40" fill="none" xmlns="http://www.w3.org/2000/svg">
<circle cx="20" cy="20" r="20" fill="black" fill-opacity="0.4"/>
<path fill-rule="evenodd" clip-rule="evenodd" d="M15.5 11.715C12.8019 11.715 10.7151 13.7816 10.7151 16.395C10.7151 18.0095 11.4488 19.5327 12.893 21.2647C14.345 23.006 16.4357 24.8673 19.0253 27.1708L19.0263 27.1717L20.0018 28.0428L20.9742 27.1811L20.9744 27.1809C20.9747 27.1806 20.9749 27.1804 20.9752 27.1801C23.5645 24.872 25.655 23.0086 27.1069 21.2661C28.5512 19.5327 29.2849 18.0095 29.2849 16.395C29.2849 13.7816 27.1981 11.715 24.5 11.715C23.5063 11.715 22.5319 12.0115 21.706 12.5273L20.466 13.5925L20 13.9928L19.5341 13.5925L18.294 12.5273C17.4682 12.0115 16.4938 11.715 15.5 11.715ZM9.28491 16.395C9.28491 12.9659 12.0381 10.2848 15.5 10.2848C16.7969 10.2848 18.0522 10.6768 19.1045 11.3476L19.1475 11.375L19.1861 11.4082L20 12.1073L20.8139 11.4082L20.8526 11.375L20.8955 11.3476C21.9478 10.6768 23.2032 10.2848 24.5 10.2848C27.9619 10.2848 30.7151 12.9659 30.7151 16.395C30.7151 18.4884 29.7488 20.3297 28.2057 22.1817C26.6854 24.0061 24.529 25.9283 22.0014 28.1814L21.9259 28.2487L21.9243 28.2501L20.4743 29.5351L19.9982 29.957L19.5237 29.5333L18.0747 28.2394L18.0737 28.2385L18.0248 28.195C15.4859 25.9367 13.3201 24.0102 11.7945 22.1806C10.2512 20.3298 9.28491 18.4884 9.28491 16.395Z" fill="white"/>
</svg>
